<svg width="1200" height="260" viewBox="0 0 1200 260" fill="none" xmlns="http://www.w3.org/2000/svg">
  <rect width="1200" height="260" rx="24" fill="url(#paint0_linear)"/>
  <rect x="92" y="92" width="90" height="140" rx="6" fill="#0F172A" fill-opacity="0.12"/>
  <rect x="198" y="64" width="72" height="168" rx="6" fill="#0F172A" fill-opacity="0.18"/>
  <rect x="286" y="108" width="62" height="124" rx="6" fill="#0F172A" fill-opacity="0.12"/>
  <rect x="362" y="44" width="110" height="188" rx="6" fill="#0F172A" fill-opacity="0.2"/>
  <rect x="486" y="82" width="76" height="150" rx="6" fill="#0F172A" fill-opacity="0.14"/>
  <rect x="576" y="52" width="94" height="180" rx="6" fill="#0F172A" fill-opacity="0.2"/>
  <rect x="684" y="96" width="70" height="136" rx="6" fill="#0F172A" fill-opacity="0.13"/>
  <rect x="768" y="36" width="116" height="196" rx="6" fill="#0F172A" fill-opacity="0.22"/>
  <rect x="898" y="76" width="78" height="156" rx="6" fill="#0F172A" fill-opacity="0.16"/>
  <rect x="990" y="56" width="98" height="176" rx="6" fill="#0F172A" fill-opacity="0.2"/>
  <rect x="1102" y="100" width="62" height="132" rx="6" fill="#0F172A" fill-opacity="0.14"/>
  <circle cx="1068" cy="54" r="28" fill="#FBBF24" fill-opacity="0.72"/>
  <defs>
    <linearGradient id="paint0_linear" x1="80" y1="6" x2="1120" y2="260" gradientUnits="userSpaceOnUse">
      <stop stop-color="#DCEEFE"/>
      <stop offset="0.5" stop-color="#F4FAFF"/>
      <stop offset="1" stop-color="#E8F2FA"/>
    </linearGradient>
  </defs>
</svg>
